<?xml version="1.0" encoding="UTF-8" standalone="no"?>
<!DOCTYPE svg PUBLIC "-//W3C//DTD SVG 1.1//EN" "http://www.w3.org/Graphics/SVG/1.1/DTD/svg11.dtd">
<!--Generated by Intaglio, www.PurgatoryDesign.com-->
<svg version="1.1" viewBox="0,0,734,576" width="734" height="576" xmlns="http://www.w3.org/2000/svg" xmlns:xlink="http://www.w3.org/1999/xlink" xmlns:intaglio="http://purgatorydesign.com/namespaces/intaglio" intaglio:grid="16,16,1,1,0.5,#9999bf,1,0,0,0" intaglio:guides="0.8,#f0f,0,1" intaglio:layer-options="2"><path fill="#fffffe" stroke="#000100" d="M300,125 C300,121.134,303.134,118,307,118 L379,118 C382.866,118,386,121.134,386,125 L386,146 C386,149.866,382.866,153,379,153 L307,153 C303.134,153,300,149.866,300,146 Z"/><text fill="#000100" font-family="Helvetica" font-size="12" transform="matrix(1,0,0,1,321,139.5)" xml:space="preserve"><tspan>Free f a</tspan></text><path fill="#fffffe" stroke="#000100" d="M161,216 C161,212.134,164.134,209,168,209 L240,209 C243.866,209,247,212.134,247,216 L247,237 C247,240.866,243.866,244,240,244 L168,244 C164.134,244,161,240.866,161,237 Z"/><text fill="#000100" font-family="Helvetica" font-size="12" transform="matrix(1,0,0,1,182,230.5)" xml:space="preserve"><tspan>Free g a</tspan></text><path fill="#fffffe" stroke="#000100" d="M440.5,215.5 C440.5,211.634,443.634,208.5,447.5,208.5 L519.5,208.5 C523.366,208.5,526.5,211.634,526.5,215.5 L526.5,236.5 C526.5,240.366,523.366,243.5,519.5,243.5 L447.5,243.5 C443.634,243.5,440.5,240.366,440.5,236.5 Z"/><text fill="#000100" font-family="Helvetica" font-size="12" transform="matrix(1,0,0,1,461.5,230)" xml:space="preserve"><tspan>Free h a</tspan></text><path fill="#fffffe" stroke="#000100" d="M329.5,358 C329.5,354.134,332.634,351,336.5,351 L408.5,351 C412.366,351,415.5,354.134,415.5,358 L415.5,379 C415.5,382.866,412.366,386,408.5,386 L336.5,386 C332.634,386,329.5,382.866,329.5,379 Z"/><text fill="#000100" font-family="Helvetica" font-size="12" transform="matrix(1,0,0,1,350.5,372.5)" xml:space="preserve"><tspan>Free j a</tspan></text><path fill="#fffffe" stroke="#000100" d="M556,358.5 C556,354.634,559.134,351.5,563,351.5 L635,351.5 C638.866,351.5,642,354.634,642,358.5 L642,379.5 C642,383.366,638.866,386.5,635,386.5 L563,386.5 C559.134,386.5,556,383.366,556,379.5 Z"/><text fill="#000100" font-family="Helvetica" font-size="12" transform="matrix(1,0,0,1,577,373)" xml:space="preserve"><tspan>Free k a</tspan></text><g><path fill="none" intaglio:arrow-end="1" stroke="#000100" d="M343.5,160.5 L212.765,190.149" intaglio:d="M343.5,160.5 L203.5,192.25"/><path fill="#000100" intaglio:omit="yes" d="M214.137,193.939 L203.5,192.25 L212.368,186.137"/></g><g><path fill="none" intaglio:arrow-end="1" stroke="#000100" d="M343.25,160.75 L470.742,190.118" intaglio:d="M343.25,160.75 L480,192.25"/><path fill="#000100" intaglio:omit="yes" d="M471.153,186.107 L480,192.25 L469.357,193.903"/></g><g><path fill="none" intaglio:arrow-end="1" stroke="#000100" d="M480.25,255.75 L377.16,331.381" intaglio:d="M480.25,255.75 L369.5,337"/><path fill="#000100" intaglio:omit="yes" d="M379.929,334.31 L369.5,337 L375.197,327.86"/></g><g><path fill="none" intaglio:arrow-end="1" stroke="#000100" d="M480,255.5 L585.539,331.451" intaglio:d="M480,255.5 L593.25,337"/><path fill="#000100" intaglio:omit="yes" d="M587.47,327.912 L593.25,337 L582.797,334.406"/></g><text fill="#000100" font-family="Helvetica" font-size="12" transform="matrix(1,0,0,1,235.25,163.25)" xml:space="preserve"><tspan>Logging</tspan></text><text fill="#000100" font-family="Helvetica" font-size="12" transform="matrix(1,0,0,1,410.5,165.5)" xml:space="preserve"><tspan>Http</tspan></text><text fill="#000100" font-family="Helvetica" font-size="12" transform="matrix(1,0,0,1,329.5,105.5)" xml:space="preserve"><tspan>App</tspan></text><text fill="#000100" font-family="Helvetica" font-size="12" transform="matrix(1,0,0,1,390.25,283.5)" xml:space="preserve"><tspan>Socket</tspan></text><text fill="#000100" font-family="Helvetica" font-size="12" transform="matrix(1,0,0,1,535.5,281.75)" xml:space="preserve"><tspan>Logging</tspan></text><text fill="#000100" font-family="Helvetica" font-size="18" transform="matrix(1,0,0,1,265.898,429.75)" xml:space="preserve"><tspan>Free (g :+: j :+: k) a</tspan></text></svg>
